<svg width="45" height="45" viewBox="0 0 45 45" fill="none" xmlns="http://www.w3.org/2000/svg">
<path d="M8.38468 16.1952C9.99412 16.199 11.5683 15.7088 12.8906 14.7889L15.9296 15.2088C16.2909 15.2596 16.6522 15.1131 16.8749 14.824C17.0995 14.537 17.1522 14.1522 17.0155 13.8143L15.8496 10.951V10.949C16.6171 8.82016 16.4374 6.46466 15.3573 4.47654C14.2792 2.48826 12.4022 1.05466 10.1973 0.537106C7.99424 0.0195064 5.67581 0.468744 3.82431 1.76951C1.97279 3.07031 0.763788 5.0996 0.504038 7.34748C0.244269 9.59554 0.955206 11.8475 2.46109 13.537C3.96499 15.2284 6.12087 16.1952 8.38468 16.1952ZM8.38468 1.52516C10.6132 1.52711 12.6972 2.63061 13.9512 4.47435C15.2051 6.3181 15.4668 8.66185 14.6504 10.7359C14.5937 10.8784 14.5937 11.0386 14.6504 11.1812L15.7891 13.982L12.8164 13.5718C12.6621 13.5504 12.5059 13.5894 12.3809 13.6812C10.6406 14.9644 8.39256 15.3335 6.33587 14.6773C4.27724 14.021 2.65811 12.4175 1.98431 10.3648C1.30851 8.31398 1.65814 6.06204 2.92571 4.31229C4.19131 2.56229 6.22062 1.52518 8.38068 1.52518L8.38468 1.52516ZM30.5607 29.2012C31.8869 27.6504 32.6174 25.6777 32.6271 23.6367C32.7052 21.08 31.6017 18.6327 29.6349 16.9982C27.797 15.5392 25.5079 14.7598 23.1604 14.799C20.8303 14.7579 18.5589 15.5294 16.7344 16.9787C14.7832 18.6095 13.6914 21.045 13.7715 23.5862C13.7812 25.6252 14.5117 27.5959 15.8359 29.1467C17.0117 30.5333 16.9942 31.76 16.9707 33.4552C16.9668 33.7013 16.9629 33.9552 16.9629 34.215L16.9649 34.217C16.9746 35.0998 17.4864 35.9005 18.2832 36.2814C18.2344 36.4357 18.209 36.5958 18.209 36.758V37.5743C18.166 38.3088 18.7266 38.9396 19.4609 38.9884H19.6094H19.6074C20.0176 40.6232 21.5156 41.7462 23.1992 41.6818C24.8809 41.7462 26.3789 40.6232 26.7891 38.9884H26.9375H26.9356C27.6719 38.9415 28.2304 38.3087 28.1894 37.5743V36.758C28.1875 36.59 28.1601 36.422 28.1074 36.2618C28.8828 35.8732 29.377 35.0841 29.3847 34.217C29.3847 33.9435 29.3809 33.6838 29.3769 33.4338C29.3535 31.6935 29.3381 30.6425 30.5607 29.2012ZM23.1992 40.4862C22.1757 40.533 21.2344 39.9334 20.8418 38.9881H25.5547C25.1621 39.9334 24.2207 40.533 23.1992 40.4862ZM26.9922 37.574C26.9961 37.6542 26.9707 37.7323 26.9179 37.7928H19.4804C19.4277 37.7323 19.4004 37.6542 19.4042 37.574V36.7577C19.4004 36.6776 19.4277 36.5995 19.4804 36.5389H26.9159C26.9706 36.5995 26.996 36.6776 26.9921 36.7577L26.9922 37.574ZM28.1816 33.451C28.1855 33.6952 28.1894 33.951 28.1894 34.2166C28.1582 34.867 27.6074 35.3709 26.957 35.3435H19.3945C18.7422 35.3709 18.1914 34.867 18.1621 34.2166C18.1621 33.9607 18.166 33.7147 18.168 33.4744C18.1934 31.6658 18.2149 30.1033 16.7481 28.3749L16.7501 28.373C15.6016 27.0428 14.9688 25.3437 14.9688 23.5858C14.9688 18.3728 19.2149 15.9999 23.1583 15.9999C27.1407 15.9999 31.4277 18.3905 31.4277 23.6404C31.4297 25.3982 30.7969 27.0993 29.6485 28.4294C28.1348 30.2126 28.1562 31.6405 28.1816 33.451ZM42.8846 0.00200629L29.8516 5.00679e-05C28.711 0.00200632 27.7852 0.9278 27.7832 2.07035V12.2108C27.7852 13.3535 28.711 14.2772 29.8516 14.2792H32.5684V16.1073C32.5704 16.3222 32.6836 16.5194 32.8692 16.6249C33.0547 16.7323 33.2832 16.7323 33.4688 16.6249L37.5313 14.2792H42.8868C44.0294 14.2772 44.9551 13.3534 44.9551 12.2108V2.06835C44.9551 0.92575 44.0274 0 42.8848 0L42.8846 0.00200629ZM43.7557 12.211C43.7557 12.6915 43.3651 13.0821 42.8846 13.0821H37.3691C37.2636 13.0821 37.1601 13.1114 37.0683 13.1642L33.7636 15.0724V13.6817C33.7636 13.3497 33.4961 13.0822 33.164 13.0822H29.8496C29.3691 13.0802 28.9785 12.6915 28.9785 12.2091V2.06859C28.9785 1.83616 29.0702 1.61546 29.2343 1.45138C29.3984 1.28731 29.6211 1.19552 29.8516 1.19552H42.8846C43.365 1.19747 43.7556 1.58615 43.7556 2.06857L43.7557 12.211ZM31.1462 4.53498C31.1462 4.20491 31.4157 3.93541 31.7458 3.93541H38.0503C38.3628 3.95885 38.605 4.22054 38.605 4.53498C38.605 4.84748 38.3628 5.10923 38.0503 5.13266H31.7438C31.4157 5.13073 31.1481 4.8651 31.1462 4.53498ZM41.6737 7.43541C41.6737 7.76741 41.4042 8.03498 41.0741 8.03498H31.7441C31.4316 8.01154 31.1894 7.75179 31.1894 7.43735C31.1894 7.12485 31.4316 6.86316 31.7441 6.83972H41.0761C41.4062 6.84166 41.6717 7.10729 41.6737 7.43541ZM41.6737 10.33V10.3319C41.6737 10.662 41.4042 10.9315 41.0741 10.9315H31.7441C31.4316 10.9081 31.1894 10.6464 31.1894 10.3339C31.1894 10.0194 31.4316 9.75966 31.7441 9.73429H41.0761C41.4042 9.73623 41.6699 10.0019 41.6737 10.328L41.6737 10.33ZM12.6837 30.0505H1.8242C0.8164 30.0524 0.00195 30.8688 0 31.8747V40.3237C0.00195 41.3315 0.8164 42.1459 1.8242 42.1479H6.25974L9.62306 44.0893H9.62112C9.80662 44.1967 10.0352 44.1967 10.2207 44.0893C10.4062 43.9838 10.5215 43.7846 10.5215 43.5717V42.1497H12.6856C13.6933 42.1478 14.5078 41.3333 14.5097 40.3255V31.8765C14.5097 31.3922 14.3164 30.9273 13.9746 30.5855C13.6328 30.2438 13.1681 30.0505 12.6837 30.0505ZM13.3107 40.326C13.3107 40.6736 13.0294 40.9529 12.6837 40.9529H9.92199C9.58999 40.9529 9.32043 41.2224 9.32043 41.5545V42.5349L6.71887 41.0349C6.62712 40.9822 6.52362 40.9548 6.41812 40.9548H1.82437C1.6564 40.9548 1.4982 40.8884 1.37906 40.7712C1.26187 40.6521 1.19742 40.4939 1.19742 40.3259V31.8769C1.19742 31.5312 1.47671 31.25 1.82437 31.25H12.6839C13.0296 31.25 13.3108 31.5312 13.3108 31.8769L13.3107 40.326ZM2.80265 33.9335C2.80265 33.6014 3.07023 33.3319 3.40225 33.3319H8.65825C8.82424 33.3202 8.98831 33.3769 9.11137 33.4901C9.23443 33.6054 9.30281 33.7635 9.30281 33.9315C9.30281 34.0975 9.23443 34.2577 9.11137 34.371C8.98831 34.4842 8.82424 34.5429 8.65825 34.5292H3.40025C3.07213 34.5292 2.8046 34.2616 2.80265 33.9335ZM11.7772 36.3455C11.7772 36.6776 11.5076 36.9452 11.1756 36.9452H3.4001C3.0876 36.9217 2.8454 36.662 2.8454 36.3475C2.8454 36.033 3.08759 35.7733 3.4001 35.7499H11.1756C11.5057 35.7499 11.7752 36.0155 11.7772 36.3455ZM11.7772 38.7596C11.7772 39.0897 11.5076 39.3592 11.1756 39.3592H3.4001C3.0876 39.3358 2.8454 39.074 2.8454 38.7596C2.8454 38.4471 3.08759 38.1854 3.4001 38.162H11.1756C11.5057 38.162 11.7752 38.4295 11.7772 38.7596ZM37.3887 31.6091C35.3633 31.6091 33.4629 32.5895 32.2912 34.2419C31.1195 35.8943 30.8205 38.0134 31.4904 39.9254L30.6115 42.0836C30.4865 42.3883 30.5353 42.7379 30.7384 42.9977C30.9396 43.2574 31.2658 43.3902 31.5939 43.3453L33.8829 43.0289L33.881 43.0308C35.5236 44.1442 37.5959 44.4117 39.465 43.7535C41.3361 43.0953 42.7834 41.5895 43.3654 39.693C43.9474 37.7965 43.5959 35.7379 42.4162 34.142C41.2384 32.5482 39.3713 31.6072 37.3887 31.6091ZM37.3887 42.9082C36.3086 42.912 35.2579 42.5663 34.3887 41.9238C34.2871 41.8476 34.1621 41.8065 34.0332 41.8065C34.0059 41.8065 33.9786 41.8085 33.9512 41.8105L31.8965 42.0937L32.6836 40.1581H32.6856C32.7441 40.0155 32.7441 39.8573 32.6875 39.7128C31.8731 37.6503 32.4981 35.2968 34.2285 33.9103C35.9609 32.5236 38.3945 32.4299 40.2285 33.6759C42.0625 34.924 42.8691 37.2208 42.2168 39.3419C41.5644 41.4611 39.6054 42.9082 37.3887 42.9082Z" fill="black"/>
</svg>
