<svg width="46" height="42" viewBox="0 0 46 42" fill="none" xmlns="http://www.w3.org/2000/svg">
<path d="M20.8333 41.6667C17.8819 41.6667 15.1389 41.1372 12.6042 40.0781C10.0694 39.0191 7.86458 37.5521 5.98958 35.6771C4.11458 33.8021 2.64757 31.5972 1.58854 29.0625C0.529514 26.5278 0 23.7847 0 20.8333C0 17.9167 0.529514 15.191 1.58854 12.6563C2.64757 10.1215 4.11458 7.91667 5.98958 6.04167C7.86458 4.16667 10.0694 2.69097 12.6042 1.61458C15.1389 0.538194 17.8819 0 20.8333 0C23.4375 0 25.8681 0.416667 28.125 1.25C30.3819 2.08333 32.4132 3.22917 34.2188 4.6875L31.9792 6.92708C30.4514 5.71181 28.75 4.77431 26.875 4.11458C25 3.45486 22.9861 3.125 20.8333 3.125C15.7986 3.125 11.5885 4.81771 8.20312 8.20312C4.81771 11.5885 3.125 15.7986 3.125 20.8333C3.125 25.8681 4.81771 30.0781 8.20312 33.4635C11.5885 36.849 15.7986 38.5417 20.8333 38.5417C22.1181 38.5417 23.3594 38.4201 24.5573 38.1771C25.7552 37.934 26.9097 37.5694 28.0208 37.0833L30.3646 39.4792C28.941 40.1736 27.4306 40.7118 25.8333 41.0938C24.2361 41.4757 22.5694 41.6667 20.8333 41.6667ZM35.9375 36.9792V30.7292H29.6875V27.6042H35.9375V21.3542H39.0625V27.6042H45.3125V30.7292H39.0625V36.9792H35.9375ZM17.7604 30.3125L9.16667 21.6667L11.5104 19.3229L17.7604 25.5729L39.3229 4.01042L41.7188 6.35417L17.7604 30.3125Z" fill="#0F72B1"/>
</svg>
